<?xml version="1.0" encoding="utf-8"?>
<!-- Generator: Adobe Illustrator 27.4.0, SVG Export Plug-In . SVG Version: 6.00 Build 0)  -->
<svg version="1.1" id="Layer_1" xmlns="http://www.w3.org/2000/svg" xmlns:xlink="http://www.w3.org/1999/xlink" x="0px" y="0px"
	 viewBox="0 0 3015.3 795.1" style="enable-background:new 0 0 3015.3 795.1;" xml:space="preserve">
<style type="text/css">
	.st0{fill:#F2F2F2;}
	.st1{fill:#8CC53F;}
	.st2{fill:#F1F1F1;}
	.st3{clip-path:url(#SVGID_00000055669358296983149770000001626975412077573566_);}
	.st4{clip-path:url(#SVGID_00000151523009940144771070000000661572972316709761_);fill:#00AEEF;}
	.st5{clip-path:url(#SVGID_00000151523009940144771070000000661572972316709761_);fill:#8DC63F;}
	.st6{clip-path:url(#SVGID_00000151523009940144771070000000661572972316709761_);fill:#F0513F;}
	
		.st7{clip-path:url(#SVGID_00000151523009940144771070000000661572972316709761_);fill:none;stroke:#F2F2F2;stroke-width:88.5404;stroke-miterlimit:10;}
</style>
<g>
	<path class="st0" d="M2293.5,631.1c54.2-154.2,108.3-308.5,162.5-462.7c12.3-35,23.3-70.6,37.8-104.7c4.3-10.2,18.9-22.7,28.3-22.3
		c10.8,0.4,26.9,11.9,30.6,22.1c59.6,165.9,117.6,332.4,176.1,498.8c7.9,22.6,16.5,45,24.8,67.4c0.5,0.5,1.1,1.1,1.6,1.6
		c0.2-0.7,0.5-1.4,0.7-2.1c46.6-132,93.2-264.1,139.7-396.1c19.8-56.3,38-113.2,59.9-168.7c4.5-11.3,23.3-25.1,34.2-24.1
		c23.4,2.2,30.2,21.3,22.6,43.5c-6.7,19.8-14,39.4-21,59.1c0,0-0.3,0.1-0.3,0.1s0.2,0.2,0.2,0.2c-34.4,97.4-68.8,194.8-103.2,292.2
		c0,0-0.3,0.1-0.3,0.1l0.2,0.2c-3.4,10-6.9,19.9-10.3,29.9c0,0-0.3,0.1-0.3,0.1l0.2,0.2c-31.1,88.4-61.7,177-94.3,264.9
		c-3.8,10.3-19.2,22.7-29.2,22.6c-10-0.1-25.3-12.5-29-22.9c-67.3-186.9-133.3-374.4-199.5-561.7c-0.6-1.7-1.3-3.4-2.5-6.4
		c-1.3,3.5-2.2,6-3.1,8.5c0,0-0.3,0.1-0.3,0.1s0.3,0.1,0.3,0.1c-49.3,139.7-98.7,279.4-148,419.1c0,0-0.3,0.1-0.3,0.1l0.2,0.2
		c-16.6,47-32,94.4-50.6,140.5c-4.2,10.4-19.5,21.9-30.2,22.3c-9.2,0.4-24.1-12.5-27.7-22.6c-69.1-192.8-137-386-205.1-579.2
		c-8.4-23.7-20.3-46.8-24.1-71.2c-1.9-11.8,7.8-31.9,18.1-37.7c16.1-9,32.1,0.3,38.9,19.7c57.6,164,115.2,327.9,172.9,491.9
		c9,25.7,18.3,51.3,27.5,77c0.3,0.4,0.6,0.8,0.8,1.2C2292.8,632,2293.2,631.6,2293.5,631.1z"/>
	<path class="st0" d="M342.4,754.4C163.2,752.8,6,590,0.2,411.5c-5.9-181,128.8-332.2,280.1-363c103.1-21,199.6-3.6,286.8,57.3
		c18.5,12.9,32.5,28.5,17.2,50.2c-15.6,22-34.9,13.1-53,0C368.4,38.1,131.1,117.8,74.8,309.1C15.6,510.3,167,703.7,377,693.8
		c65.2-3.1,124.1-25.2,174-68.4c3.1-2.7,5.5-7.8,5.5-11.9c0.4-65.3,0.4-130.7,0-196c0-2.6-4.8-7.4-7.4-7.5
		c-80-0.4-160.1,0.8-240-1.6c-11.4-0.3-29.4-16-32-27.3c-4.4-19.6,11.2-31,31.8-31.1c91.8-0.3,183.7-0.5,275.5-0.5
		c21.1,0,32.8,10.3,32.8,31.9c0.1,114.6,0.9,229.3-1.1,343.9c-0.2,10.2-18.4,28.3-27.8,28c-10.8-0.3-22.8-15.8-30.8-27.2
		c-4.2-6-0.7-17.3-0.7-28.4c-66.2,41.7-136.6,61-213.2,56.7C343.3,754.5,342.9,754.5,342.4,754.4z"/>
	<path class="st0" d="M819.3,695.1c103.3,0,205.6-0.7,307.8,0.8c14.6,0.2,31.1,9,42.4,18.8c4.4,3.8-1.2,22.3-6,32.2
		c-2.3,4.9-13.3,7.9-20.4,7.9c-116.5,0.4-233,0.1-349.4,0.3c-24,0-34.5-12-34.5-34.8c0-201.7,0.1-403.3,0.1-605
		c0-13.9-0.2-27.8,0.1-41.7c0.4-20.5,12.9-34.4,31.3-29.7c11.5,2.9,27.1,20.5,27.4,31.9c2.3,84.8,1.2,169.8,1.2,254.7
		c0,119.6,0,239.1,0.1,358.7C819.3,691,819.3,692.9,819.3,695.1z"/>
	<path class="st1" d="M2755.9,629.3c-0.2,0.7-0.5,1.4-0.7,2.1c-0.5-0.5-1.1-1.1-1.6-1.6C2754.4,629.6,2755.1,629.5,2755.9,629.3z"/>
	<path class="st1" d="M2293.5,631.1c-0.3,0.5-0.7,0.9-1,1.4c-0.3-0.4-0.6-0.8-0.8-1.2C2292.3,631.2,2292.9,631.2,2293.5,631.1z"/>
	<path class="st1" d="M2991.3,143.3l-0.2-0.2c0,0,0.3-0.1,0.3-0.1c0,0,0.2,0.2,0.2,0.2L2991.3,143.3z"/>
	<polygon class="st1" points="2520.1,171.2 2519.8,171.1 2520.1,171 2520.4,171.1 	"/>
	<polygon class="st1" points="2888,435.8 2887.8,435.6 2888.1,435.6 2888.4,435.8 	"/>
	<path class="st1" d="M2877.7,466l-0.2-0.2c0,0,0.3-0.1,0.3-0.1c0,0,0.2,0.2,0.2,0.2L2877.7,466z"/>
	<path class="st1" d="M2372,590.6l-0.2-0.2c0,0,0.3-0.1,0.3-0.1c0,0,0.2,0.2,0.2,0.2L2372,590.6z"/>
	<path class="st2" d="M342.4,754.4c0.4,0,0.9,0.1,1.3,0.1C343.3,754.5,342.9,754.5,342.4,754.4z"/>
	<path class="st1" d="M1625.2,776.8c0.4-0.1,0.8-0.1,1.1-0.2C1626,776.7,1625.6,776.8,1625.2,776.8z"/>
	<polygon class="st1" points="1604.4,103.8 1604.2,104.1 1604.1,103.8 1604.3,103.5 	"/>
	<g>
		<g>
			<defs>
				<rect id="SVGID_1_" x="1184" y="0" width="813.4" height="795.1"/>
			</defs>
			<clipPath id="SVGID_00000183929876281853710560000012355766001052173444_">
				<use xlink:href="#SVGID_1_"  style="overflow:visible;"/>
			</clipPath>
			<g style="clip-path:url(#SVGID_00000183929876281853710560000012355766001052173444_);">
				<defs>
					<rect id="SVGID_00000178897065429927408930000009655566283069032854_" x="1184" y="0" width="813.4" height="795.1"/>
				</defs>
				<clipPath id="SVGID_00000016049351445230938060000003391155914739164074_">
					<use xlink:href="#SVGID_00000178897065429927408930000009655566283069032854_"  style="overflow:visible;"/>
				</clipPath>
				<path style="clip-path:url(#SVGID_00000016049351445230938060000003391155914739164074_);fill:#00AEEF;" d="M1306.9,420.9
					c0-156.5,126.8-283.3,283.3-283.3s283.3,126.8,283.3,283.3c0,25.5-3.4,50.2-9.7,73.7c31.2-49.6,49.4-108.2,49.4-171.2
					c0-177.7-144-321.7-321.7-321.7c-177.7,0-321.7,144-321.7,321.7c0,60,16.5,116.2,45.1,164.3
					C1309.7,466.3,1306.9,443.9,1306.9,420.9"/>
				<path style="clip-path:url(#SVGID_00000016049351445230938060000003391155914739164074_);fill:#8DC63F;" d="M1835.8,186.6
					c-59.4-34.3-125.1-47.4-188.6-41.8c129.2,26.4,226.4,140.6,226.4,277.6c0,156.5-126.9,283.3-283.3,283.3
					c-73.2,0-139.8-27.7-190.1-73.3c27.1,44.7,65.5,83.4,114,111.4c153.9,88.8,350.6,36.1,439.4-117.8
					C2042.4,472.1,1989.7,275.4,1835.8,186.6"/>
				<path style="clip-path:url(#SVGID_00000016049351445230938060000003391155914739164074_);fill:#F0513F;" d="M1590.2,705.6
					c-156.5,0-283.3-126.8-283.3-283.3c0-135.2,94.8-248.2,221.5-276.5c-61.1-3.9-123.9,9.6-180.9,42.5
					c-153.9,88.8-206.6,285.6-117.8,439.4c88.8,153.9,285.6,206.6,439.4,117.7c52-30,92.4-72.4,119.8-121.3
					C1737.8,674.5,1667.6,705.6,1590.2,705.6"/>
				
					<path style="clip-path:url(#SVGID_00000016049351445230938060000003391155914739164074_);fill:none;stroke:#F2F2F2;stroke-width:88.5404;stroke-miterlimit:10;" d="
					M1868.7,258.8c-88.8-153.9-285.6-206.6-439.4-117.7c-153.9,88.8-206.6,285.6-117.8,439.4s285.6,206.6,439.4,117.7
					C1904.8,609.4,1957.5,412.7,1868.7,258.8z"/>
			</g>
		</g>
	</g>
</g>
</svg>
